<svg width="104" height="95" viewBox="0 0 104 95" fill="none" xmlns="http://www.w3.org/2000/svg">
    <path d="M2.77412 45.3876C2.33212 45.3629 1.89271 45.4696 1.51141 45.6941C1.13011 45.9187 0.824047 46.251 0.631894 46.6492C0.43974 47.0474 0.370123 47.4935 0.431841 47.9311C0.493558 48.3688 0.683839 48.7783 0.978638 49.108C1.27344 49.4378 1.65952 49.6728 2.0881 49.7836C2.51667 49.8943 2.96851 49.8757 3.3865 49.7301C3.80449 49.5845 4.16987 49.3185 4.43647 48.9657C4.70308 48.6128 4.85893 48.189 4.88434 47.7478C4.90124 47.4544 4.86003 47.1606 4.76309 46.8832C4.66615 46.6057 4.51536 46.3501 4.31937 46.1309C4.12338 45.9117 3.88602 45.7332 3.62087 45.6056C3.35572 45.4781 3.06798 45.404 2.77412 45.3876Z" fill="white"/>
    <path d="M28.6271 47.1426C28.5226 48.9779 29.1516 50.7796 30.3761 52.1524C31.6006 53.5252 33.3205 54.357 35.1586 54.4653H35.5374C36.8914 54.4638 38.2153 54.0665 39.3457 53.3225C40.4761 52.5785 41.3636 51.5204 41.8986 50.2786C42.4336 49.0369 42.5928 47.6659 42.3563 46.3349C42.1199 45.004 41.4983 43.7712 40.5683 42.7889C39.6382 41.8065 38.4404 41.1175 37.1227 40.807C35.8049 40.4964 34.4249 40.5779 33.153 41.0413C31.8811 41.5047 30.773 42.3297 29.9653 43.4147C29.1577 44.4996 28.6859 45.7969 28.6082 47.1464L28.6271 47.1426Z" fill="white"/>
    <path d="M2.77412 45.3876C2.33212 45.3629 1.89271 45.4696 1.51141 45.6941C1.13011 45.9187 0.824047 46.251 0.631894 46.6492C0.43974 47.0474 0.370123 47.4935 0.431841 47.9311C0.493558 48.3688 0.683839 48.7783 0.978638 49.108C1.27344 49.4378 1.65952 49.6728 2.0881 49.7836C2.51667 49.8943 2.96851 49.8757 3.3865 49.7301C3.80449 49.5845 4.16987 49.3185 4.43647 48.9657C4.70308 48.6128 4.85893 48.189 4.88434 47.7478C4.90124 47.4544 4.86003 47.1606 4.76309 46.8832C4.66615 46.6057 4.51536 46.3501 4.31937 46.1309C4.12338 45.9117 3.88602 45.7332 3.62087 45.6056C3.35572 45.4781 3.06798 45.404 2.77412 45.3876Z" fill="white"/>
    <path d="M28.1877 6.97014C28.5813 6.76832 28.9064 6.45473 29.1219 6.06886C29.3375 5.68299 29.4339 5.24209 29.399 4.80165C29.364 4.36122 29.1994 3.94093 28.9258 3.59371C28.6521 3.24648 28.2817 2.98784 27.8612 2.85033C27.4406 2.71282 26.9887 2.7026 26.5623 2.82095C26.136 2.93929 25.7542 3.18092 25.4651 3.51542C25.176 3.84991 24.9925 4.26232 24.9376 4.70073C24.8827 5.13914 24.959 5.58395 25.1568 5.97916C25.289 6.24441 25.4727 6.48078 25.6972 6.67453C25.9217 6.86827 26.1826 7.01553 26.4646 7.10774C26.7466 7.19995 27.0442 7.23527 27.34 7.21165C27.6358 7.18803 27.9239 7.10593 28.1877 6.97014Z" fill="white"/>
    <path d="M35.223 19.2174C35.8344 18.9095 36.3406 18.4276 36.6776 17.8325C37.0147 17.2374 37.1675 16.5559 37.1166 15.8742C37.0658 15.1924 36.8136 14.541 36.392 14.0023C35.9704 13.4636 35.3983 13.0618 34.748 12.8477C34.0977 12.6336 33.3984 12.6167 32.7385 12.7993C32.0787 12.9819 31.4878 13.3558 31.0407 13.8736C30.5936 14.3914 30.3103 15.0299 30.2267 15.7084C30.143 16.3869 30.2627 17.075 30.5707 17.6856C30.7749 18.0916 31.0574 18.4534 31.4019 18.7502C31.7464 19.0471 32.1462 19.2731 32.5784 19.4154C33.0106 19.5577 33.4667 19.6135 33.9205 19.5795C34.3743 19.5456 34.8169 19.4225 35.223 19.2174Z" fill="white"/>
    <path d="M11.5484 27.6407C12.0197 27.9504 12.5724 28.1136 13.1366 28.1097C13.7008 28.1058 14.2512 27.9349 14.7181 27.6187C15.1851 27.3025 15.5476 26.8552 15.7599 26.3333C15.9722 25.8114 16.0247 25.2383 15.9108 24.6867C15.7969 24.135 15.5217 23.6294 15.1199 23.2338C14.7182 22.8383 14.208 22.5706 13.6539 22.4645C13.0998 22.3584 12.5266 22.4188 12.0068 22.6379C11.4871 22.8571 11.0441 23.2252 10.7339 23.6957C10.5279 24.0082 10.3855 24.358 10.315 24.7254C10.2445 25.0927 10.2471 25.4703 10.3227 25.8367C10.3984 26.203 10.5455 26.5509 10.7558 26.8604C10.9661 27.17 11.2354 27.4351 11.5484 27.6407Z" fill="white"/>
    <path d="M15.765 44.1281C15.0814 44.0895 14.4017 44.2542 13.8118 44.6013C13.2219 44.9484 12.7484 45.4623 12.4509 46.078C12.1535 46.6938 12.0456 47.3837 12.1409 48.0606C12.2362 48.7376 12.5303 49.3711 12.9862 49.8812C13.442 50.3913 14.0391 50.755 14.7019 50.9263C15.3648 51.0977 16.0636 51.069 16.7102 50.8439C17.3567 50.6188 17.9219 50.2074 18.3342 49.6617C18.7466 49.116 18.9877 48.4605 19.027 47.778C19.0536 47.3244 18.9903 46.8699 18.8406 46.4408C18.691 46.0116 18.458 45.6161 18.1549 45.277C17.8519 44.9379 17.4848 44.6619 17.0747 44.4647C16.6646 44.2676 16.2195 44.1532 15.765 44.1281Z" fill="white"/>
    <path d="M11.9272 67.3707C11.4238 67.6247 11.007 68.022 10.7297 68.5125C10.4524 69.003 10.327 69.5645 10.3693 70.1261C10.4116 70.6877 10.6197 71.2242 10.9673 71.6677C11.3149 72.1113 11.7865 72.442 12.3223 72.618C12.8582 72.794 13.4343 72.8075 13.9778 72.6567C14.5213 72.5059 15.0079 72.1977 15.3759 71.7708C15.744 71.344 15.977 70.8179 16.0456 70.2589C16.1142 69.6998 16.0153 69.1331 15.7613 68.6302C15.5929 68.2957 15.36 67.9977 15.076 67.7532C14.7919 67.5088 14.4624 67.3227 14.1062 67.2057C13.75 67.0887 13.3742 67.043 13.0002 67.0713C12.6263 67.0996 12.2617 67.2013 11.9272 67.3707Z" fill="white"/>
    <path d="M25.3879 36.9832C26.0622 37.4244 26.8524 37.656 27.6586 37.6489C28.4648 37.6417 29.2507 37.3961 29.9171 36.943C30.5834 36.4899 31.1002 35.8498 31.4022 35.1035C31.7041 34.3572 31.7776 33.5382 31.6134 32.7502C31.4492 31.9622 31.0546 31.2405 30.4796 30.6764C29.9045 30.1122 29.1749 29.731 28.3828 29.5808C27.5908 29.4307 26.7719 29.5184 26.0298 29.8328C25.2877 30.1473 24.6556 30.6744 24.2135 31.3475C23.9199 31.7945 23.7174 32.2949 23.6175 32.82C23.5176 33.3452 23.5223 33.8849 23.6314 34.4082C23.7404 34.9316 23.9517 35.4283 24.2531 35.8701C24.5545 36.312 24.9401 36.6902 25.3879 36.9832Z" fill="white"/>
    <path d="M68.0924 18.9451C68.6662 19.3195 69.3384 19.5157 70.0239 19.5088C70.7093 19.5019 71.3774 19.2923 71.9435 18.9064C72.5097 18.5205 72.9485 17.9756 73.2046 17.3408C73.4606 16.7059 73.5224 16.0095 73.382 15.3396C73.2417 14.6697 72.9056 14.0564 72.4161 13.5772C71.9267 13.098 71.3059 12.7744 70.6323 12.6474C69.9587 12.5204 69.2625 12.5956 68.6317 12.8636C68.0009 13.1315 67.4639 13.5802 67.0884 14.1528C66.8387 14.5333 66.6667 14.9593 66.5822 15.4063C66.4977 15.8533 66.5024 16.3126 66.596 16.7578C66.6896 17.203 66.8703 17.6254 67.1277 18.0007C67.3852 18.3761 67.7143 18.697 68.0962 18.9451H68.0924Z" fill="white"/>
    <path d="M75.1997 6.73564C75.5708 6.97802 76.0056 7.10512 76.4491 7.10086C76.8926 7.0966 77.3248 6.96117 77.6912 6.7117C78.0576 6.46223 78.3417 6.10991 78.5076 5.69928C78.6734 5.28865 78.7136 4.83814 78.6231 4.40469C78.5326 3.97125 78.3153 3.57434 77.9989 3.26412C77.6825 2.9539 77.281 2.74431 76.8453 2.66184C76.4096 2.57936 75.9591 2.62771 75.5509 2.80077C75.1427 2.97382 74.795 3.26382 74.5519 3.6341C74.3903 3.88017 74.2788 4.15563 74.224 4.44472C74.1691 4.73381 74.1718 5.03087 74.2319 5.31892C74.2921 5.60696 74.4085 5.88035 74.5746 6.12344C74.7407 6.36653 74.9531 6.57456 75.1997 6.73564Z" fill="white"/>
    <path d="M68.638 40.5537C66.8269 40.4916 65.0635 41.1394 63.7247 42.3587C62.386 43.5779 61.5783 45.2717 61.4743 47.0779C61.3704 48.884 61.9785 50.6591 63.1685 52.0234C64.3586 53.3877 66.0361 54.2329 67.8424 54.3783H68.2439C69.5816 54.3776 70.8905 53.9906 72.0128 53.264C73.1351 52.5374 74.0229 51.5021 74.5692 50.2831C75.1154 49.064 75.2968 47.7133 75.0914 46.3936C74.886 45.074 74.3026 43.8419 73.4115 42.8458C72.808 42.1667 72.0751 41.6143 71.2555 41.2207C70.436 40.8272 69.5462 40.6005 68.638 40.5537Z" fill="white"/>
    <path d="M37.4999 36.5028C38.2546 38.0251 39.5433 39.2173 41.1209 39.853C42.6985 40.4886 44.4551 40.5233 46.0567 39.9504C47.6583 39.3774 48.9931 38.2369 49.8074 36.7457C50.6218 35.2544 50.8588 33.5163 50.4734 31.862C50.0881 30.2076 49.1072 28.7524 47.7173 27.7729C46.3275 26.7933 44.6255 26.3579 42.9351 26.5493C41.2447 26.7408 39.6836 27.5457 38.5488 28.8111C37.414 30.0765 36.7845 31.7141 36.7801 33.4126C36.7763 34.4845 37.0228 35.5426 37.4999 36.5028Z" fill="white"/>
    <path d="M91.8655 27.6332C92.3691 27.3795 92.786 26.9824 93.0636 26.4922C93.3412 26.002 93.467 25.4407 93.4252 24.8791C93.3833 24.3175 93.1756 23.781 92.8284 23.3372C92.4812 22.8934 92.01 22.5624 91.4743 22.3859C90.9387 22.2094 90.3627 22.1954 89.8191 22.3456C89.2755 22.4959 88.7887 22.8036 88.4203 23.23C88.0518 23.6564 87.8182 24.1822 87.749 24.7411C87.6798 25.3 87.7781 25.8668 88.0315 26.3699C88.3725 27.0447 88.9678 27.5567 89.6867 27.7936C90.4055 28.0305 91.1892 27.9728 91.8655 27.6332Z" fill="white"/>
    <path d="M74.2867 29.8383C73.5666 30.2004 72.9702 30.7675 72.573 31.4679C72.1757 32.1684 71.9955 32.9707 72.055 33.7735C72.1145 34.5762 72.411 35.3433 72.9072 35.9778C73.4034 36.6122 74.0769 37.0855 74.8425 37.3378C75.6081 37.5902 76.4315 37.6102 77.2085 37.3953C77.9855 37.1804 78.6812 36.7404 79.2077 36.1307C79.7342 35.5211 80.0677 34.7693 80.1663 33.9704C80.2648 33.1715 80.1238 32.3614 79.7611 31.6425C79.5203 31.1651 79.1877 30.7398 78.7823 30.3908C78.3768 30.0418 77.9065 29.776 77.3982 29.6084C76.8898 29.4409 76.3534 29.375 75.8195 29.4144C75.2856 29.4539 74.7648 29.5979 74.2867 29.8383Z" fill="white"/>
    <path d="M51.635 5.69171C52.1974 5.72341 52.7566 5.58819 53.2421 5.30307C53.7277 5.01795 54.1178 4.59571 54.3633 4.08957C54.6089 3.58343 54.6988 3.01604 54.6218 2.45894C54.5449 1.90184 54.3044 1.37995 53.9308 0.959076C53.5572 0.538198 53.0671 0.237167 52.5224 0.09393C51.9777 -0.0493071 51.4027 -0.0283384 50.8699 0.154193C50.3371 0.336724 49.8703 0.672647 49.5285 1.11962C49.1866 1.56658 48.9849 2.10459 48.9489 2.66582C48.9248 3.0409 48.9753 3.41703 49.0975 3.77253C49.2197 4.12804 49.4111 4.45588 49.6608 4.73716C49.9105 5.01844 50.2135 5.2476 50.5523 5.41143C50.8912 5.57526 51.2591 5.67051 51.635 5.69171Z" fill="white"/>
    <path d="M51.6047 23.6163C52.4095 23.6621 53.2099 23.4686 53.9046 23.0603C54.5994 22.652 55.1572 22.0472 55.5077 21.3224C55.8582 20.5976 55.9855 19.7853 55.8736 18.9883C55.7618 18.1912 55.4157 17.4451 54.8791 16.8444C54.3426 16.2437 53.6397 15.8153 52.8593 15.6134C52.0789 15.4115 51.2561 15.4451 50.4948 15.7101C49.7336 15.975 49.0681 16.4593 48.5826 17.1018C48.097 17.7442 47.8131 18.516 47.7669 19.3196C47.7058 20.3972 48.0757 21.4551 48.7953 22.2607C49.5149 23.0663 50.5253 23.5539 51.6047 23.6163Z" fill="white"/>
    <path d="M29.5175 65.1618C30.2375 64.7997 30.8339 64.2326 31.2311 63.5321C31.6284 62.8317 31.8087 62.0293 31.7492 61.2266C31.6897 60.4239 31.3931 59.6568 30.8969 59.0223C30.4007 58.3879 29.7272 57.9145 28.9616 57.6622C28.196 57.4099 27.3727 57.3899 26.5957 57.6048C25.8187 57.8196 25.1229 58.2597 24.5965 58.8693C24.07 59.4789 23.7364 60.2307 23.6379 61.0296C23.5394 61.8285 23.6803 62.6387 24.043 63.3576C24.5301 64.3209 25.3801 65.0519 26.4064 65.3901C27.4328 65.7284 28.5517 65.6463 29.5175 65.1618Z" fill="white"/>
    <path d="M54.2377 29.5546C53.3913 30.8434 52.9996 32.3771 53.1247 33.9132C53.2497 35.4492 53.8843 36.8997 54.9281 38.035C55.9719 39.1704 57.3651 39.9258 58.8873 40.1815C60.4095 40.4373 61.9737 40.1789 63.3322 39.4473C64.6907 38.7156 65.766 37.5524 66.3878 36.1419C67.0096 34.7314 67.1424 33.1541 66.7652 31.6597C66.388 30.1654 65.5223 28.8393 64.3052 27.8915C63.0881 26.9436 61.5891 26.4281 60.0455 26.4266C58.8933 26.4248 57.7588 26.7099 56.7447 27.256C55.7306 27.8022 54.8689 28.5922 54.2377 29.5546Z" fill="white"/>
    <path d="M66.2928 58.501C65.7374 57.4013 64.8981 56.4695 63.8615 55.8017C62.825 55.134 61.6288 54.7544 60.3963 54.7022C59.1637 54.65 57.9396 54.9271 56.8501 55.5048C55.7607 56.0825 54.8453 56.94 54.1986 57.9888C53.5518 59.0376 53.1971 60.2396 53.1709 61.471C53.1448 62.7023 53.4482 63.9183 54.0498 64.9935C54.6515 66.0687 55.5296 66.9641 56.5935 67.5875C57.6575 68.2108 58.8687 68.5394 60.1024 68.5394C61.1874 68.5309 62.2559 68.2719 63.2241 67.7829C64.8613 66.9556 66.1034 65.5143 66.6785 63.7747C67.2536 62.0351 67.115 60.1388 66.2928 58.501Z" fill="white"/>
    <path d="M78.4086 58.0169C77.7346 57.5751 76.9445 57.3429 76.1383 57.3494C75.3321 57.356 74.5459 57.6011 73.8792 58.0537C73.2125 58.5063 72.6952 59.1462 72.3928 59.8923C72.0903 60.6384 72.0163 61.4574 72.18 62.2455C72.3437 63.0337 72.7378 63.7557 73.3125 64.3202C73.8873 64.8847 74.6168 65.2664 75.4088 65.4171C76.2008 65.5677 77.0197 65.4804 77.7621 65.1663C78.5044 64.8523 79.1368 64.3255 79.5793 63.6526C79.8731 63.2058 80.0758 62.7056 80.176 62.1806C80.2762 61.6556 80.2718 61.116 80.1631 60.5927C80.0544 60.0694 79.8435 59.5725 79.5424 59.1306C79.2414 58.6886 78.8561 58.3102 78.4086 58.0169Z" fill="white"/>
    <path d="M91.6837 47.6192C91.7222 46.9367 91.5573 46.2581 91.2096 45.6691C90.862 45.0802 90.3473 44.6074 89.7305 44.3105C89.1138 44.0136 88.4227 43.9058 87.7447 44.001C87.0666 44.0961 86.432 44.3897 85.9211 44.8448C85.4102 45.2999 85.0459 45.896 84.8743 46.5578C84.7026 47.2196 84.7314 47.9173 84.9568 48.5628C85.1823 49.2082 85.5944 49.7725 86.141 50.1842C86.6876 50.5959 87.3441 50.8366 88.0277 50.8758C88.482 50.9019 88.937 50.8383 89.3667 50.6887C89.7963 50.5391 90.1922 50.3064 90.5318 50.004C90.8713 49.7015 91.1478 49.3352 91.3455 48.926C91.5431 48.5168 91.658 48.0728 91.6837 47.6192Z" fill="white"/>
    <path d="M101.276 45.1569C100.833 45.1314 100.393 45.2376 100.011 45.4621C99.6282 45.6866 99.321 46.0192 99.128 46.418C98.935 46.8167 98.8647 47.2637 98.9261 47.7023C98.9875 48.1409 99.1778 48.5515 99.473 48.8821C99.7681 49.2127 100.155 49.4485 100.584 49.5597C101.014 49.6709 101.466 49.6525 101.885 49.5068C102.304 49.3611 102.67 49.0947 102.938 48.7411C103.205 48.3876 103.361 47.963 103.386 47.5208C103.42 46.9282 103.216 46.3467 102.821 45.9036C102.425 45.4605 101.87 45.192 101.276 45.1569Z" fill="white"/>
    <path d="M92.2444 67.3593C91.7725 67.0507 91.2195 66.8888 90.6554 66.8939C90.0913 66.899 89.5414 67.071 89.0751 67.388C88.6089 67.7051 88.2473 68.1531 88.0361 68.6753C87.8248 69.1976 87.7734 69.7706 87.8883 70.322C88.0033 70.8734 88.2793 71.3784 88.6817 71.7732C89.084 72.168 89.5946 72.4348 90.1488 72.5399C90.703 72.6451 91.276 72.5838 91.7953 72.3639C92.3146 72.1439 92.757 71.7752 93.0665 71.3043C93.2726 70.9916 93.4149 70.6413 93.4851 70.2736C93.5554 69.9059 93.5522 69.5279 93.4758 69.1614C93.3994 68.7949 93.2513 68.4471 93.04 68.1378C92.8287 67.8286 92.5583 67.564 92.2444 67.3593Z" fill="white"/>
    <path d="M28.5968 88.2644C28.226 88.0215 27.7914 87.8938 27.3478 87.8974C26.9043 87.9011 26.4718 88.036 26.1051 88.285C25.7383 88.534 25.4538 88.886 25.2874 89.2965C25.121 89.707 25.0802 90.1575 25.1703 90.5911C25.2603 91.0247 25.4771 91.4219 25.7932 91.7325C26.1093 92.0431 26.5106 92.2531 26.9463 92.3361C27.382 92.419 27.8325 92.3711 28.241 92.1984C28.6494 92.0257 28.9974 91.7361 29.2409 91.366C29.4027 91.1201 29.5143 90.8449 29.5695 90.5559C29.6247 90.267 29.6223 89.97 29.5625 89.682C29.5027 89.3939 29.3866 89.1205 29.2209 88.8773C29.0552 88.634 28.8432 88.4258 28.5968 88.2644Z" fill="white"/>
    <path d="M75.6051 88.0299C75.2114 88.2317 74.8864 88.5453 74.6708 88.9312C74.4553 89.3171 74.3589 89.758 74.3938 90.1984C74.4287 90.6388 74.5934 91.0591 74.867 91.4063C75.1406 91.7536 75.511 92.0122 75.9316 92.1497C76.3522 92.2872 76.8041 92.2975 77.2304 92.1791C77.6568 92.0608 78.0386 91.8191 78.3277 91.4846C78.6168 91.1501 78.8003 90.7377 78.8552 90.2993C78.91 89.8609 78.8337 89.4161 78.6359 89.0209C78.5044 88.7584 78.3222 88.5243 78.0999 88.3322C77.8777 88.14 77.6196 87.9936 77.3405 87.9012C77.0614 87.8088 76.7668 87.7722 76.4736 87.7937C76.1803 87.8151 75.8942 87.8941 75.6316 88.0261L75.6051 88.0299Z" fill="white"/>
    <path d="M49.5551 65.4341C50.3997 64.1464 50.79 62.6143 50.6643 61.0802C50.5387 59.5461 49.9041 58.0977 48.8611 56.9642C47.8182 55.8306 46.4263 55.0767 44.9059 54.8218C43.3855 54.5668 41.8233 54.8254 40.4666 55.5566C39.1099 56.2877 38.0362 57.4497 37.4155 58.8586C36.7947 60.2676 36.6623 61.8429 37.0392 63.3354C37.4161 64.8279 38.2808 66.1523 39.4965 67.099C40.7121 68.0456 42.2093 68.5605 43.751 68.5621C44.9025 68.563 46.0362 68.2774 47.0495 67.7313C48.0628 67.1852 48.9239 66.3957 49.5551 65.4341Z" fill="white"/>
    <path d="M35.7004 76.0587C35.1274 75.6845 34.4561 75.4883 33.7714 75.4948C33.0867 75.5014 32.4194 75.7105 31.8537 76.0956C31.288 76.4808 30.8494 77.0247 30.5933 77.6587C30.3372 78.2927 30.2751 78.9883 30.4149 79.6575C30.5546 80.3267 30.89 80.9395 31.3786 81.4184C31.8671 81.8974 32.4869 82.221 33.1597 82.3483C33.8324 82.4757 34.5279 82.401 35.1581 82.1338C35.7884 81.8666 36.3251 81.4189 36.7005 80.8472C36.9505 80.4675 37.123 80.0422 37.208 79.5958C37.293 79.1493 37.2889 78.6906 37.196 78.2457C37.1031 77.8009 36.9232 77.3787 36.6665 77.0034C36.4099 76.6281 36.0815 76.3071 35.7004 76.0587Z" fill="white"/>
    <path d="M51.8661 89.3083C51.3028 89.2764 50.7427 89.4118 50.2566 89.6976C49.7705 89.9834 49.3801 90.4067 49.1349 90.9139C48.8897 91.4211 48.8006 91.9896 48.8789 92.5474C48.9573 93.1051 49.1995 93.6272 49.575 94.0475C49.9505 94.4679 50.4424 94.7677 50.9885 94.9089C51.5346 95.0502 52.1104 95.0267 52.6431 94.8413C53.1758 94.6559 53.6415 94.3169 53.9813 93.8673C54.3211 93.4177 54.5198 92.8776 54.5522 92.3153C54.5946 91.5612 54.3356 90.821 53.832 90.2572C53.3284 89.6935 52.6214 89.3522 51.8661 89.3083Z" fill="white"/>
    <path d="M51.8964 71.3875C51.0917 71.3396 50.2909 71.531 49.5951 71.9374C48.8993 72.3438 48.3399 72.9471 47.9875 73.6709C47.6351 74.3947 47.5055 75.2066 47.6152 76.0039C47.7249 76.8012 48.0689 77.5482 48.6037 78.1503C49.1385 78.7525 49.8402 79.1828 50.6199 79.3869C51.3997 79.591 52.2226 79.5597 52.9845 79.297C53.7465 79.0343 54.4133 78.5519 54.9007 77.9109C55.3881 77.2699 55.6742 76.499 55.7228 75.6956C55.7556 75.1618 55.6826 74.6267 55.508 74.121C55.3333 73.6154 55.0604 73.1491 54.705 72.7489C54.3495 72.3487 53.9185 72.0225 53.4365 71.7888C52.9546 71.5552 52.4312 71.4189 51.8964 71.3875Z" fill="white"/>
    <path d="M68.5698 75.7826C67.9585 76.093 67.4532 76.5774 67.1178 77.1745C66.7824 77.7717 66.6319 78.4547 66.6853 79.1373C66.7388 79.8198 66.9939 80.4712 67.4182 81.009C67.8425 81.5468 68.4171 81.9469 69.0692 82.1586C69.7214 82.3703 70.4218 82.3842 71.0818 82.1985C71.7418 82.0127 72.3318 81.6357 72.7772 81.1151C73.2226 80.5945 73.5033 79.9538 73.5838 79.2739C73.6644 78.594 73.5411 77.9055 73.2297 77.2956C72.8139 76.4798 72.0907 75.8623 71.219 75.5786C70.3474 75.2949 69.3986 75.3683 68.5811 75.7826H68.5698Z" fill="white"/>
</svg>
